<svg id="Layer_1" data-name="Layer 1" xmlns="http://www.w3.org/2000/svg" viewBox="0 0 512 512">
  <title>files-documents-outline</title>
  <path
    d="M407.28,455.35H352.4v53.38H49.84v-399h54.88V56.38h55.16V3.27H462.16v399H407.28ZM338.75,123H63.49V495.52H338.75Zm-234,53.11V162.86H297.24v13.21Zm0,53.11V216H297.24v13.21Zm0,53.38V269.35H297.24v13.21Zm0,53.11V322.45H297.24v13.21Zm0,53.38V375.83H297.24V389Zm0,53.11V428.93H297.24v13.21ZM118.37,69.59v40.16h234V442.14h41.23V69.59Zm55.16-53.11v39.9H407.28V389h41.23V16.48Z"
    fill="#ffffff"/>
  <path
    d="M355.67,512H46.57V106.48h54.88V53.11h55.16V0H465.43V405.52H410.55v53.11H355.67ZM53.11,505.46h296V452.08H404V399h54.88V6.54H163.15V59.65H108V113H53.11ZM342,498.79H60.22V119.69H342ZM66.76,492.25H335.48v-366H66.76ZM396.9,445.41H349.13V113h-234V66.32H396.9Zm-41.23-6.54h34.69v-366H121.64v33.62h234Zm-55.16,6.54H101.45V425.66H300.51ZM108,438.87H294v-6.67H108Zm343.79-46.56H404V59.65H170.26V13.21H451.78Zm-41.23-6.54h34.69v-366H176.8V53.11H410.55Zm-110,6.54H101.45V372.56H300.51ZM108,385.77H294V379.1H108Zm192.51-46.84H101.45V319.18H300.51ZM108,332.39H294v-6.67H108Zm192.51-46.56H101.45V266.07H300.51ZM108,279.28H294v-6.67H108Zm192.51-46.84H101.45V212.7H300.51ZM108,225.9H294v-6.67H108Zm192.51-46.56H101.45V159.59H300.51ZM108,172.8H294v-6.67H108Z"
    fill="#ffffff"/>
</svg>
