<svg id="Layer_1" data-name="Layer 1" xmlns="http://www.w3.org/2000/svg" viewBox="0 0 512 512">
  <title>key-check-glyph</title>
  <path
    fill="#FFFFFF"
    d="M491.52,266.24H285.08c-10-69.36-69.65-122.88-141.72-122.88C64.31,143.36,0,207.67,0,286.72S64.31,430.08,143.36,430.08c72.08,0,131.73-53.52,141.72-122.88h83.56v41a20.48,20.48,0,0,0,41,0v-41h41v41a20.48,20.48,0,1,0,41,0v-41a20.48,20.48,0,1,0,0-41ZM122.88,286.72a20.48,20.48,0,1,1-20.48-20.48A20.48,20.48,0,0,1,122.88,286.72ZM354.16,157.84a20.48,20.48,0,1,1,29-29l6,6,47-47a20.48,20.48,0,0,1,29,29L403.6,178.32a20.47,20.47,0,0,1-29,0Z"
  />
</svg>