<svg id="Layer_1" data-name="Layer 1" xmlns="http://www.w3.org/2000/svg" viewBox="0 0 512 512">
  <defs>
    <style>.cls-1{fill:#603FEF;}.cls-2{fill:#ffffff;}</style>
  </defs>
  <title>gesture-22-filled</title>
  <path fill="#FFFFFF" d="M264.39,62.27a46.56,46.56,0,0,0-51.06,46.33V256.92c-23,2.9-39.23,12.61-48.5,29-25.49,45,18.57,121,23.67,129.47.21.35.43.69.67,1,18.71,26.24,24.15,36.81,24.15,56.27v23.83A15.52,15.52,0,0,0,228.85,512h225a15.52,15.52,0,0,0,15.52-15.52V451.13a156,156,0,0,1,9.55-53.84l4.94-13.48a143.46,143.46,0,0,0,8.78-49.49V272.85c0-24.48-18.46-45.42-42-47.67a47.18,47.18,0,0,0-24.41,4.27c-6.82-15-21-25.95-37.65-27.54a47.18,47.18,0,0,0-21.93,3.18c-5.29-18.3-21-32.39-40.13-34.21a47.21,47.21,0,0,0-20,2.46v-63.4C306.42,85.45,288,64.52,264.39,62.27Zm47.11,143.45a15.43,15.43,0,0,1,12-3.95c7.82.74,13.94,8.11,13.94,16.77v45.21a15.52,15.52,0,0,0,31,0V248.24a15.51,15.51,0,0,1,17.09-15.44c7.82.74,13.94,8.11,13.94,16.77V287a15.52,15.52,0,0,0,31,0V271.52a15.51,15.51,0,0,1,17.09-15.44c7.82.74,13.94,8.11,13.94,16.77v61.47a112.57,112.57,0,0,1-6.89,38.82l-4.94,13.48a186.85,186.85,0,0,0-11.45,64.52V481H244.36v-8.31c0-29-9.46-45.55-29.55-73.76-15.63-26.33-35.47-75.67-23-97.73,3.72-6.56,10.92-10.86,21.48-12.86v14.23a15.52,15.52,0,0,0,31,0V108.61a15.51,15.51,0,0,1,17.09-15.44c7.82.74,13.94,8.11,13.94,16.77V232.73a15.52,15.52,0,0,0,31,0V217.21A15.37,15.37,0,0,1,311.51,205.72Z"/>
  <path class="cls-2" d="M337.45,108.61a15.52,15.52,0,0,0,31,0,108.61,108.61,0,0,0-217.21,0,15.52,15.52,0,0,0,31,0,77.58,77.58,0,0,1,155.15,0Z"/>
  <path class="cls-2" d="M73.7,263.76a15.52,15.52,0,0,0,15.52-15.52V161.58l12.3,12.3a15.51,15.51,0,1,0,21.94-21.94L84.69,113.17a15.59,15.59,0,0,0-1.16-1.05c-.17-.14-.34-.26-.52-.39s-.46-.35-.7-.51-.45-.28-.68-.41-.41-.25-.62-.36-.48-.23-.72-.35-.43-.21-.65-.3-.47-.18-.71-.26-.48-.18-.72-.25-.48-.12-.72-.18-.5-.13-.76-.19-.55-.09-.83-.13-.45-.07-.68-.1a15.62,15.62,0,0,0-3.06,0c-.23,0-.45.07-.68.1s-.55.07-.83.13-.51.12-.76.19-.48.11-.72.18-.48.17-.72.25-.48.16-.71.26-.44.2-.65.3-.48.22-.72.35-.41.24-.62.37-.46.26-.68.41-.47.34-.7.52-.35.25-.51.38a15.6,15.6,0,0,0-1.16,1.05L23.94,151.94a15.51,15.51,0,0,0,21.94,21.94l12.3-12.3v86.67A15.52,15.52,0,0,0,73.7,263.76Z"/>
</svg>